<?xml version="1.0" encoding="UTF-8"?>
<svg id="Layer_1" data-name="Layer 1" xmlns="http://www.w3.org/2000/svg" viewBox="0 0 91 91">
  <defs>
    <style>
      .cls-1 {
        fill: #b5e3f9;
      }

      .cls-1, .cls-2, .cls-3 {
        stroke: #231f20;
      }

      .cls-2 {
        fill: #407aae;
      }

      .cls-3 {
        fill: #71c9f2;
      }
    </style>
  </defs>
  <path class="cls-2" d="M35.21,48.5h-13.35s-6.68,11.56-6.68,11.56l6.68,11.56h13.35s7.34,12.72,7.34,12.72H14.52S.5,60.06,.5,60.06l14.02-24.28h21.39s2.95,6.74,2.95,6.74l-3.65,5.98Z"/>
  <path class="cls-3" d="M49.11,60.06l6.68,11.56h13.35s6.68-11.56,6.68-11.56l-6.68-11.56,7.34-12.72,14.02,24.28-14.02,24.28h-28.04s-10.7-18.53-10.7-18.53l4.37-5.92,7,.17Z"/>
  <path class="cls-1" d="M51.5,42.5l6.68-11.56-6.68-11.56h-13.35s-6.68,11.56-6.68,11.56h-14.69S30.8,6.66,30.8,6.66h28.04s14.02,24.28,14.02,24.28l-10.7,18.53-7.31-.82-3.35-6.15Z"/>
</svg>