<?xml version="1.0" encoding="UTF-8"?>
<svg id="Layer_1" data-name="Layer 1" xmlns="http://www.w3.org/2000/svg" viewBox="0 0 300 91">
  <defs>
    <style>
      .cls-1 {
        fill: #fff;
      }

      .cls-2 {
        fill: #b5e3f9;
      }

      .cls-2, .cls-3, .cls-4, .cls-5 {
        stroke: #231f20;
      }

      .cls-3 {
        fill: #407aae;
      }

      .cls-4 {
        fill: none;
      }

      .cls-5 {
        fill: #71c9f2;
      }
    </style>
  </defs>
  <path class="cls-3" d="M40.71,47.83h-13.35s-6.68,11.56-6.68,11.56l6.68,11.56h13.35s7.34,12.72,7.34,12.72H20.02S6,59.4,6,59.4l14.02-24.28h21.39s2.95,6.74,2.95,6.74l-3.65,5.98Z"/>
  <path class="cls-5" d="M54.61,59.4l6.68,11.56h13.35s6.68-11.56,6.68-11.56l-6.68-11.56,7.34-12.72,14.02,24.28-14.02,24.28h-28.04s-10.7-18.53-10.7-18.53l4.37-5.92,7,.17Z"/>
  <path class="cls-2" d="M57,41.84l6.68-11.56-6.68-11.56h-13.35s-6.68,11.56-6.68,11.56h-14.69S36.3,6,36.3,6h28.04s14.02,24.28,14.02,24.28l-10.7,18.53-7.31-.82-3.35-6.15Z"/>
  <g>
    <g>
      <path class="cls-1" d="M127.82,62.02h-4.69l-5.62-9.42c-.52-.88-1.02-1.62-1.5-2.24s-.98-1.12-1.49-1.51-1.05-.68-1.64-.86-1.25-.27-1.98-.27h-3.23v14.3h-3.94V28.41h10.03c1.47,0,2.82,.18,4.07,.55s2.32,.93,3.23,1.68,1.63,1.68,2.14,2.8,.77,2.43,.77,3.93c0,1.17-.18,2.25-.53,3.22s-.85,1.85-1.5,2.61-1.43,1.42-2.34,1.96-1.94,.96-3.08,1.25v.09c.56,.25,1.05,.54,1.46,.86s.81,.7,1.18,1.14,.75,.93,1.11,1.49,.78,1.2,1.23,1.93l6.3,10.1Zm-20.16-30.05v12.19h5.34c.98,0,1.89-.15,2.73-.45s1.56-.72,2.17-1.28,1.09-1.23,1.43-2.04,.52-1.71,.52-2.71c0-1.8-.58-3.2-1.75-4.21s-2.85-1.51-5.05-1.51h-5.39Z"/>
      <path class="cls-1" d="M155.97,60.82c-2.45,1.19-5.66,1.78-9.61,1.78-5.16,0-9.21-1.52-12.16-4.55s-4.43-7.07-4.43-12.12c0-5.38,1.66-9.73,4.98-13.08s7.63-5.02,12.93-5.02c3.28,0,6.05,.41,8.3,1.24v7.29c-2.25-1.34-4.81-2.02-7.69-2.02-3.16,0-5.7,.99-7.64,2.98s-2.91,4.67-2.91,8.06,.91,5.84,2.74,7.77,4.29,2.89,7.38,2.89,5.66-.72,8.11-2.16v6.91Z"/>
      <path class="cls-1" d="M181.85,62.02h-20.02V28.41h7.57v27.47h12.45v6.14Z"/>
      <path class="cls-1" d="M200.57,62.6c-4.81,0-8.73-1.57-11.77-4.7s-4.55-7.21-4.55-12.25c0-5.31,1.54-9.61,4.62-12.89s7.16-4.92,12.23-4.92c4.8,0,8.68,1.57,11.64,4.71s4.44,7.28,4.44,12.42-1.54,9.54-4.61,12.77-7.07,4.85-12.01,4.85Zm.33-28.24c-2.66,0-4.77,1-6.33,2.99s-2.34,4.63-2.34,7.91,.78,5.96,2.34,7.9,3.61,2.91,6.14,2.91,4.68-.94,6.21-2.82,2.3-4.5,2.3-7.84-.74-6.2-2.23-8.13-3.52-2.91-6.09-2.91Z"/>
      <path class="cls-1" d="M253,62.02h-7.64l-13.85-21.12c-.81-1.23-1.38-2.16-1.69-2.79h-.09c.12,1.19,.19,3,.19,5.44v18.47h-7.15V28.41h8.16l13.34,20.46c.61,.92,1.17,1.84,1.69,2.74h.09c-.12-.78-.19-2.32-.19-4.62V28.41h7.15V62.02Z"/>
      <path class="cls-1" d="M280.85,62.02h-20.16V28.41h19.38v6.16h-11.81v7.48h10.99v6.14h-10.99v7.69h12.59v6.14Z"/>
    </g>
    <g>
      <path class="cls-4" d="M127.82,62.02h-4.69l-5.62-9.42c-.52-.88-1.02-1.62-1.5-2.24s-.98-1.12-1.49-1.51-1.05-.68-1.64-.86-1.25-.27-1.98-.27h-3.23v14.3h-3.94V28.41h10.03c1.47,0,2.82,.18,4.07,.55s2.32,.93,3.23,1.68,1.63,1.68,2.14,2.8,.77,2.43,.77,3.93c0,1.17-.18,2.25-.53,3.22s-.85,1.85-1.5,2.61-1.43,1.42-2.34,1.96-1.94,.96-3.08,1.25v.09c.56,.25,1.05,.54,1.46,.86s.81,.7,1.18,1.14,.75,.93,1.11,1.49,.78,1.2,1.23,1.93l6.3,10.1Zm-20.16-30.05v12.19h5.34c.98,0,1.89-.15,2.73-.45s1.56-.72,2.17-1.28,1.09-1.23,1.43-2.04,.52-1.71,.52-2.71c0-1.8-.58-3.2-1.75-4.21s-2.85-1.51-5.05-1.51h-5.39Z"/>
      <path class="cls-4" d="M155.97,60.82c-2.45,1.19-5.66,1.78-9.61,1.78-5.16,0-9.21-1.52-12.16-4.55s-4.43-7.07-4.43-12.12c0-5.38,1.66-9.73,4.98-13.08s7.63-5.02,12.93-5.02c3.28,0,6.05,.41,8.3,1.24v7.29c-2.25-1.34-4.81-2.02-7.69-2.02-3.16,0-5.7,.99-7.64,2.98s-2.91,4.67-2.91,8.06,.91,5.84,2.74,7.77,4.29,2.89,7.38,2.89,5.66-.72,8.11-2.16v6.91Z"/>
      <path class="cls-4" d="M181.85,62.02h-20.02V28.41h7.57v27.47h12.45v6.14Z"/>
      <path class="cls-4" d="M200.57,62.6c-4.81,0-8.73-1.57-11.77-4.7s-4.55-7.21-4.55-12.25c0-5.31,1.54-9.61,4.62-12.89s7.16-4.92,12.23-4.92c4.8,0,8.68,1.57,11.64,4.71s4.44,7.28,4.44,12.42-1.54,9.54-4.61,12.77-7.07,4.85-12.01,4.85Zm.33-28.24c-2.66,0-4.77,1-6.33,2.99s-2.34,4.63-2.34,7.91,.78,5.96,2.34,7.9,3.61,2.91,6.14,2.91,4.68-.94,6.21-2.82,2.3-4.5,2.3-7.84-.74-6.2-2.23-8.13-3.52-2.91-6.09-2.91Z"/>
      <path class="cls-4" d="M253,62.02h-7.64l-13.85-21.12c-.81-1.23-1.38-2.16-1.69-2.79h-.09c.12,1.19,.19,3,.19,5.44v18.47h-7.15V28.41h8.16l13.34,20.46c.61,.92,1.17,1.84,1.69,2.74h.09c-.12-.78-.19-2.32-.19-4.62V28.41h7.15V62.02Z"/>
      <path class="cls-4" d="M280.85,62.02h-20.16V28.41h19.38v6.16h-11.81v7.48h10.99v6.14h-10.99v7.69h12.59v6.14Z"/>
    </g>
  </g>
  <g>
    <g>
      <path class="cls-1" d="M98.32,18.8c0,.8-.15,1.5-.45,2.1s-.7,1.1-1.21,1.51-1.1,.71-1.78,.91-1.41,.3-2.18,.3c-.52,0-1.01-.04-1.46-.13s-.85-.19-1.19-.31-.63-.25-.86-.38-.4-.25-.5-.35-.17-.25-.22-.44-.06-.47-.06-.83c0-.24,0-.45,.02-.61s.04-.3,.08-.4,.08-.17,.14-.22,.13-.06,.21-.06c.11,0,.26,.06,.46,.19s.46,.27,.77,.43,.69,.3,1.12,.43,.94,.19,1.51,.19c.38,0,.71-.04,1.01-.13s.55-.22,.76-.38,.37-.37,.47-.61,.16-.51,.16-.81c0-.34-.09-.64-.28-.88s-.43-.46-.73-.66-.64-.37-1.03-.54-.78-.35-1.18-.53-.8-.4-1.18-.64-.72-.52-1.03-.86-.54-.72-.73-1.18-.28-1-.28-1.63c0-.73,.13-1.37,.4-1.92s.63-1.01,1.09-1.37,1-.63,1.62-.81,1.28-.27,1.97-.27c.36,0,.72,.03,1.08,.08s.7,.13,1.01,.22,.59,.2,.83,.32,.4,.21,.48,.29,.13,.14,.16,.2,.05,.13,.07,.22,.03,.2,.04,.34,.01,.31,.01,.51c0,.23,0,.42-.02,.57s-.03,.29-.06,.39-.07,.18-.12,.22-.12,.07-.21,.07-.22-.05-.41-.16-.42-.23-.69-.36-.59-.25-.95-.35-.75-.16-1.18-.16c-.34,0-.63,.04-.88,.12s-.46,.2-.63,.34-.29,.32-.38,.52-.12,.42-.12,.64c0,.34,.09,.63,.28,.87s.43,.46,.74,.66,.66,.37,1.05,.54,.79,.35,1.2,.53,.8,.4,1.2,.64,.74,.52,1.04,.86,.55,.72,.74,1.17,.28,.98,.28,1.59Z"/>
      <path class="cls-1" d="M103.68,8.95c0,.59-.12,1-.36,1.23s-.69,.34-1.35,.34-1.11-.11-1.34-.33-.35-.61-.35-1.18,.12-1.01,.36-1.24,.69-.35,1.35-.35,1.1,.11,1.34,.33,.35,.62,.35,1.19Zm-.22,13.99c0,.08-.02,.15-.07,.21s-.13,.11-.24,.15-.26,.07-.45,.09-.43,.03-.71,.03-.53,0-.71-.03-.34-.05-.45-.09-.19-.09-.24-.15-.07-.13-.07-.21V12.51c0-.08,.02-.15,.07-.21s.13-.11,.24-.15,.26-.08,.45-.1,.43-.04,.71-.04,.53,.01,.71,.04,.34,.06,.45,.1,.19,.09,.24,.15,.07,.13,.07,.21v10.43Z"/>
      <path class="cls-1" d="M123.02,22.94c0,.08-.02,.15-.07,.21s-.12,.11-.23,.15-.26,.07-.45,.09-.43,.03-.71,.03-.54,0-.73-.03-.34-.05-.45-.09-.19-.09-.23-.15-.06-.13-.06-.21v-6.2c0-.35-.03-.67-.1-.96s-.17-.54-.3-.74-.31-.37-.52-.48-.46-.17-.74-.17c-.35,0-.71,.14-1.07,.41s-.75,.67-1.17,1.2v6.95c0,.08-.02,.15-.07,.21s-.13,.11-.24,.15-.26,.07-.45,.09-.42,.03-.7,.03-.53,0-.71-.03-.34-.05-.45-.09-.19-.09-.24-.15-.07-.13-.07-.21v-6.2c0-.35-.03-.67-.1-.96s-.17-.54-.3-.74-.3-.37-.52-.48-.46-.17-.74-.17c-.36,0-.72,.14-1.08,.41s-.75,.67-1.16,1.2v6.95c0,.08-.02,.15-.07,.21s-.13,.11-.24,.15-.26,.07-.45,.09-.43,.03-.71,.03-.53,0-.71-.03-.34-.05-.45-.09-.19-.09-.24-.15-.07-.13-.07-.21V12.49c0-.08,.02-.15,.06-.21s.11-.11,.21-.15,.23-.07,.39-.09,.36-.03,.6-.03,.46,0,.62,.03,.29,.05,.38,.09,.15,.09,.19,.15,.06,.13,.06,.21v1.21c.58-.62,1.15-1.09,1.73-1.41s1.17-.47,1.8-.47c.43,0,.82,.04,1.16,.13s.65,.22,.92,.39,.5,.37,.7,.6,.36,.5,.49,.79c.31-.34,.62-.62,.92-.87s.6-.44,.89-.59,.59-.27,.88-.34,.59-.11,.9-.11c.7,0,1.28,.12,1.76,.35s.86,.55,1.15,.96,.5,.87,.63,1.41,.19,1.11,.19,1.71v6.69Z"/>
      <path class="cls-1" d="M136.44,17.56c0,.93-.1,1.77-.3,2.51s-.49,1.38-.87,1.9-.86,.93-1.43,1.21-1.22,.42-1.96,.42c-.3,0-.58-.03-.84-.09s-.5-.15-.74-.27-.47-.27-.71-.45-.48-.39-.73-.63v4.92c0,.08-.02,.15-.07,.21s-.13,.12-.24,.16-.26,.08-.45,.1-.43,.04-.71,.04-.53-.01-.71-.04-.34-.06-.45-.1-.19-.1-.24-.16-.07-.13-.07-.21V12.49c0-.08,.02-.15,.06-.21s.11-.11,.21-.15,.23-.07,.39-.09,.36-.03,.6-.03,.43,0,.59,.03,.29,.05,.39,.09,.17,.09,.21,.15,.06,.13,.06,.21v1.23c.3-.31,.6-.59,.9-.83s.59-.44,.9-.6,.62-.28,.94-.36,.67-.12,1.04-.12c.77,0,1.42,.15,1.96,.45s.98,.71,1.32,1.24,.59,1.13,.74,1.83,.23,1.44,.23,2.23Zm-3.07,.21c0-.45-.03-.87-.1-1.28s-.18-.78-.34-1.1-.37-.58-.63-.77-.59-.29-.98-.29c-.2,0-.39,.03-.58,.09s-.39,.15-.59,.29-.4,.3-.62,.52-.43,.47-.67,.79v3.45c.41,.52,.81,.93,1.18,1.21s.77,.43,1.17,.43c.38,0,.71-.1,.98-.29s.49-.45,.66-.77,.3-.67,.38-1.07,.12-.8,.12-1.2Z"/>
      <path class="cls-1" d="M141.75,22.94c0,.08-.02,.15-.07,.21s-.13,.11-.24,.15-.26,.07-.45,.09-.43,.03-.71,.03-.53,0-.71-.03-.34-.05-.45-.09-.19-.09-.24-.15-.07-.13-.07-.21V7.53c0-.08,.02-.15,.07-.21s.13-.12,.24-.16,.26-.08,.45-.1,.43-.04,.71-.04,.53,.01,.71,.04,.34,.06,.45,.1,.19,.1,.24,.16,.07,.13,.07,.21v15.41Z"/>
      <path class="cls-1" d="M154.35,17.41c0,.36-.08,.62-.24,.8s-.38,.26-.66,.26h-6.36c0,.45,.05,.85,.16,1.21s.27,.67,.5,.93,.53,.45,.89,.58,.8,.2,1.31,.2,.97-.04,1.36-.11c.39-.07,.73-.16,1.01-.25s.52-.17,.71-.25,.34-.11,.46-.11c.07,0,.13,.01,.18,.04s.09,.08,.12,.15,.05,.17,.06,.3,.02,.29,.02,.49c0,.17,0,.32-.01,.44s-.02,.22-.04,.31-.04,.16-.07,.22-.07,.12-.12,.17-.19,.13-.42,.22-.52,.19-.87,.28-.75,.17-1.21,.23c-.45,.07-.94,.1-1.45,.1-.93,0-1.74-.12-2.44-.35s-1.28-.59-1.75-1.07-.82-1.08-1.05-1.8-.35-1.58-.35-2.55,.12-1.77,.36-2.51,.59-1.38,1.05-1.9,1.02-.92,1.68-1.19,1.4-.41,2.23-.41c.88,0,1.62,.13,2.24,.39s1.13,.62,1.53,1.07,.69,1,.88,1.62,.28,1.3,.28,2.04v.47Zm-2.86-.84c.02-.83-.14-1.48-.5-1.95-.36-.47-.9-.71-1.65-.71-.38,0-.7,.07-.98,.21s-.51,.33-.69,.57-.32,.52-.42,.84-.15,.67-.17,1.04h4.41Z"/>
    </g>
    <g>
      <path class="cls-4" d="M98.32,18.8c0,.8-.15,1.5-.45,2.1s-.7,1.1-1.21,1.51-1.1,.71-1.78,.91-1.41,.3-2.18,.3c-.52,0-1.01-.04-1.46-.13s-.85-.19-1.19-.31-.63-.25-.86-.38-.4-.25-.5-.35-.17-.25-.22-.44-.06-.47-.06-.83c0-.24,0-.45,.02-.61s.04-.3,.08-.4,.08-.17,.14-.22,.13-.06,.21-.06c.11,0,.26,.06,.46,.19s.46,.27,.77,.43,.69,.3,1.12,.43,.94,.19,1.51,.19c.38,0,.71-.04,1.01-.13s.55-.22,.76-.38,.37-.37,.47-.61,.16-.51,.16-.81c0-.34-.09-.64-.28-.88s-.43-.46-.73-.66-.64-.37-1.03-.54-.78-.35-1.18-.53-.8-.4-1.18-.64-.72-.52-1.03-.86-.54-.72-.73-1.18-.28-1-.28-1.63c0-.73,.13-1.37,.4-1.92s.63-1.01,1.09-1.37,1-.63,1.62-.81,1.28-.27,1.97-.27c.36,0,.72,.03,1.08,.08s.7,.13,1.01,.22,.59,.2,.83,.32,.4,.21,.48,.29,.13,.14,.16,.2,.05,.13,.07,.22,.03,.2,.04,.34,.01,.31,.01,.51c0,.23,0,.42-.02,.57s-.03,.29-.06,.39-.07,.18-.12,.22-.12,.07-.21,.07-.22-.05-.41-.16-.42-.23-.69-.36-.59-.25-.95-.35-.75-.16-1.18-.16c-.34,0-.63,.04-.88,.12s-.46,.2-.63,.34-.29,.32-.38,.52-.12,.42-.12,.64c0,.34,.09,.63,.28,.87s.43,.46,.74,.66,.66,.37,1.05,.54,.79,.35,1.2,.53,.8,.4,1.2,.64,.74,.52,1.04,.86,.55,.72,.74,1.17,.28,.98,.28,1.59Z"/>
      <path class="cls-4" d="M103.68,8.95c0,.59-.12,1-.36,1.23s-.69,.34-1.35,.34-1.11-.11-1.34-.33-.35-.61-.35-1.18,.12-1.01,.36-1.24,.69-.35,1.35-.35,1.1,.11,1.34,.33,.35,.62,.35,1.19Zm-.22,13.99c0,.08-.02,.15-.07,.21s-.13,.11-.24,.15-.26,.07-.45,.09-.43,.03-.71,.03-.53,0-.71-.03-.34-.05-.45-.09-.19-.09-.24-.15-.07-.13-.07-.21V12.51c0-.08,.02-.15,.07-.21s.13-.11,.24-.15,.26-.08,.45-.1,.43-.04,.71-.04,.53,.01,.71,.04,.34,.06,.45,.1,.19,.09,.24,.15,.07,.13,.07,.21v10.43Z"/>
      <path class="cls-4" d="M123.02,22.94c0,.08-.02,.15-.07,.21s-.12,.11-.23,.15-.26,.07-.45,.09-.43,.03-.71,.03-.54,0-.73-.03-.34-.05-.45-.09-.19-.09-.23-.15-.06-.13-.06-.21v-6.2c0-.35-.03-.67-.1-.96s-.17-.54-.3-.74-.31-.37-.52-.48-.46-.17-.74-.17c-.35,0-.71,.14-1.07,.41s-.75,.67-1.17,1.2v6.95c0,.08-.02,.15-.07,.21s-.13,.11-.24,.15-.26,.07-.45,.09-.42,.03-.7,.03-.53,0-.71-.03-.34-.05-.45-.09-.19-.09-.24-.15-.07-.13-.07-.21v-6.2c0-.35-.03-.67-.1-.96s-.17-.54-.3-.74-.3-.37-.52-.48-.46-.17-.74-.17c-.36,0-.72,.14-1.08,.41s-.75,.67-1.16,1.2v6.95c0,.08-.02,.15-.07,.21s-.13,.11-.24,.15-.26,.07-.45,.09-.43,.03-.71,.03-.53,0-.71-.03-.34-.05-.45-.09-.19-.09-.24-.15-.07-.13-.07-.21V12.49c0-.08,.02-.15,.06-.21s.11-.11,.21-.15,.23-.07,.39-.09,.36-.03,.6-.03,.46,0,.62,.03,.29,.05,.38,.09,.15,.09,.19,.15,.06,.13,.06,.21v1.21c.58-.62,1.15-1.09,1.73-1.41s1.17-.47,1.8-.47c.43,0,.82,.04,1.16,.13s.65,.22,.92,.39,.5,.37,.7,.6,.36,.5,.49,.79c.31-.34,.62-.62,.92-.87s.6-.44,.89-.59,.59-.27,.88-.34,.59-.11,.9-.11c.7,0,1.28,.12,1.76,.35s.86,.55,1.15,.96,.5,.87,.63,1.41,.19,1.11,.19,1.71v6.69Z"/>
      <path class="cls-4" d="M136.44,17.56c0,.93-.1,1.77-.3,2.51s-.49,1.38-.87,1.9-.86,.93-1.43,1.21-1.22,.42-1.96,.42c-.3,0-.58-.03-.84-.09s-.5-.15-.74-.27-.47-.27-.71-.45-.48-.39-.73-.63v4.92c0,.08-.02,.15-.07,.21s-.13,.12-.24,.16-.26,.08-.45,.1-.43,.04-.71,.04-.53-.01-.71-.04-.34-.06-.45-.1-.19-.1-.24-.16-.07-.13-.07-.21V12.49c0-.08,.02-.15,.06-.21s.11-.11,.21-.15,.23-.07,.39-.09,.36-.03,.6-.03,.43,0,.59,.03,.29,.05,.39,.09,.17,.09,.21,.15,.06,.13,.06,.21v1.23c.3-.31,.6-.59,.9-.83s.59-.44,.9-.6,.62-.28,.94-.36,.67-.12,1.04-.12c.77,0,1.42,.15,1.96,.45s.98,.71,1.32,1.24,.59,1.13,.74,1.83,.23,1.44,.23,2.23Zm-3.07,.21c0-.45-.03-.87-.1-1.28s-.18-.78-.34-1.1-.37-.58-.63-.77-.59-.29-.98-.29c-.2,0-.39,.03-.58,.09s-.39,.15-.59,.29-.4,.3-.62,.52-.43,.47-.67,.79v3.45c.41,.52,.81,.93,1.18,1.21s.77,.43,1.17,.43c.38,0,.71-.1,.98-.29s.49-.45,.66-.77,.3-.67,.38-1.07,.12-.8,.12-1.2Z"/>
      <path class="cls-4" d="M141.75,22.94c0,.08-.02,.15-.07,.21s-.13,.11-.24,.15-.26,.07-.45,.09-.43,.03-.71,.03-.53,0-.71-.03-.34-.05-.45-.09-.19-.09-.24-.15-.07-.13-.07-.21V7.53c0-.08,.02-.15,.07-.21s.13-.12,.24-.16,.26-.08,.45-.1,.43-.04,.71-.04,.53,.01,.71,.04,.34,.06,.45,.1,.19,.1,.24,.16,.07,.13,.07,.21v15.41Z"/>
      <path class="cls-4" d="M154.35,17.41c0,.36-.08,.62-.24,.8s-.38,.26-.66,.26h-6.36c0,.45,.05,.85,.16,1.21s.27,.67,.5,.93,.53,.45,.89,.58,.8,.2,1.31,.2,.97-.04,1.36-.11c.39-.07,.73-.16,1.01-.25s.52-.17,.71-.25,.34-.11,.46-.11c.07,0,.13,.01,.18,.04s.09,.08,.12,.15,.05,.17,.06,.3,.02,.29,.02,.49c0,.17,0,.32-.01,.44s-.02,.22-.04,.31-.04,.16-.07,.22-.07,.12-.12,.17-.19,.13-.42,.22-.52,.19-.87,.28-.75,.17-1.21,.23c-.45,.07-.94,.1-1.45,.1-.93,0-1.74-.12-2.44-.35s-1.28-.59-1.75-1.07-.82-1.08-1.05-1.8-.35-1.58-.35-2.55,.12-1.77,.36-2.51,.59-1.38,1.05-1.9,1.02-.92,1.68-1.19,1.4-.41,2.23-.41c.88,0,1.62,.13,2.24,.39s1.13,.62,1.53,1.07,.69,1,.88,1.62,.28,1.3,.28,2.04v.47Zm-2.86-.84c.02-.83-.14-1.48-.5-1.95-.36-.47-.9-.71-1.65-.71-.38,0-.7,.07-.98,.21s-.51,.33-.69,.57-.32,.52-.42,.84-.15,.67-.17,1.04h4.41Z"/>
    </g>
  </g>
  <g>
    <g>
      <path class="cls-1" d="M191.72,81.3c0,.08-.02,.15-.06,.21s-.12,.11-.23,.15-.26,.07-.45,.09-.43,.04-.71,.04-.52-.01-.7-.04-.34-.05-.45-.09-.19-.09-.23-.15-.07-.13-.07-.21v-12.34h-.02l-4.39,12.33c-.03,.1-.08,.19-.15,.25s-.17,.12-.29,.16-.28,.06-.46,.08-.41,.02-.68,.02-.49,0-.68-.03-.34-.05-.46-.09-.22-.1-.29-.16-.12-.14-.14-.22l-4.24-12.33h-.02v12.34c0,.08-.02,.15-.06,.21s-.12,.11-.24,.15-.27,.07-.45,.09-.42,.04-.71,.04-.52-.01-.7-.04-.34-.05-.45-.09-.19-.09-.23-.15-.06-.13-.06-.21v-13.51c0-.4,.11-.7,.32-.91s.49-.32,.84-.32h2.02c.36,0,.67,.03,.93,.09s.48,.16,.67,.29,.34,.32,.47,.54,.23,.5,.33,.83l3.28,9.04h.05l3.4-9.01c.1-.33,.21-.61,.33-.83s.26-.41,.42-.55,.35-.24,.57-.3,.47-.09,.76-.09h2.07c.21,0,.39,.03,.54,.08s.28,.13,.38,.24,.17,.23,.22,.39,.08,.33,.08,.52v13.51Z"/>
      <path class="cls-1" d="M205.42,75.99c0,.89-.12,1.7-.35,2.44s-.59,1.37-1.07,1.9-1.07,.94-1.79,1.23-1.56,.43-2.52,.43-1.74-.13-2.43-.39-1.26-.63-1.71-1.12-.79-1.1-1.01-1.82-.33-1.54-.33-2.46,.12-1.71,.36-2.44,.6-1.37,1.07-1.9,1.07-.94,1.79-1.22,1.55-.43,2.51-.43,1.75,.13,2.44,.38,1.26,.63,1.71,1.12,.78,1.1,1,1.82,.33,1.54,.33,2.47Zm-3.04,.12c0-.52-.04-.99-.12-1.42s-.22-.81-.42-1.13-.46-.57-.78-.75-.73-.27-1.22-.27c-.44,0-.82,.08-1.15,.24s-.6,.39-.81,.7-.37,.68-.47,1.11-.16,.93-.16,1.48c0,.52,.04,.99,.13,1.42s.22,.81,.42,1.13,.45,.57,.78,.74,.73,.26,1.22,.26c.45,0,.83-.08,1.16-.24s.6-.39,.81-.7,.37-.67,.47-1.11,.15-.93,.15-1.48Z"/>
      <path class="cls-1" d="M217.67,81.33c0,.08-.02,.15-.06,.21s-.11,.11-.21,.15-.23,.07-.39,.09-.36,.03-.6,.03c-.26,0-.47,0-.63-.03s-.29-.05-.38-.09-.16-.09-.2-.15-.06-.13-.06-.21v-1.21c-.58,.62-1.17,1.09-1.76,1.41s-1.22,.47-1.86,.47c-.72,0-1.32-.12-1.81-.35s-.88-.55-1.18-.96-.52-.88-.64-1.41-.19-1.2-.19-2v-6.4c0-.08,.02-.15,.06-.21s.12-.11,.23-.15,.27-.07,.46-.09,.43-.03,.71-.03,.53,0,.71,.03,.34,.05,.45,.09,.19,.09,.24,.15,.07,.13,.07,.21v5.91c0,.55,.04,.96,.11,1.25s.18,.54,.32,.74,.33,.37,.55,.48,.48,.17,.78,.17c.38,0,.75-.14,1.13-.41s.78-.67,1.21-1.2v-6.95c0-.08,.02-.15,.06-.21s.12-.11,.23-.15,.26-.07,.45-.09,.43-.03,.71-.03,.53,0,.71,.03,.34,.05,.45,.09,.19,.09,.23,.15,.07,.13,.07,.21v10.45Z"/>
      <path class="cls-1" d="M230.61,81.33c0,.08-.02,.15-.07,.21s-.12,.11-.23,.15-.26,.07-.45,.09-.43,.03-.71,.03-.53,0-.72-.03-.34-.05-.45-.09-.19-.09-.23-.15-.07-.13-.07-.21v-5.96c0-.51-.04-.91-.11-1.2s-.18-.54-.32-.74-.32-.37-.54-.48-.48-.17-.78-.17c-.38,0-.75,.14-1.14,.41s-.78,.67-1.2,1.2v6.95c0,.08-.02,.15-.07,.21s-.13,.11-.24,.15-.26,.07-.45,.09-.43,.03-.71,.03-.53,0-.71-.03-.34-.05-.45-.09-.19-.09-.24-.15-.07-.13-.07-.21v-10.45c0-.08,.02-.15,.06-.21s.11-.11,.21-.15,.23-.07,.39-.09,.36-.03,.6-.03,.46,0,.62,.03,.29,.05,.38,.09,.15,.09,.19,.15,.06,.13,.06,.21v1.21c.58-.62,1.17-1.09,1.76-1.41s1.22-.47,1.87-.47c.71,0,1.31,.12,1.8,.35s.88,.55,1.18,.96,.52,.87,.65,1.41,.2,1.19,.2,1.95v6.46Z"/>
      <path class="cls-1" d="M239.47,80.29c0,.34-.02,.61-.06,.79s-.1,.31-.17,.39-.17,.14-.31,.2-.3,.11-.48,.15-.38,.08-.6,.1-.43,.04-.65,.04c-.59,0-1.09-.07-1.52-.22s-.79-.38-1.07-.69-.49-.7-.62-1.17-.2-1.02-.2-1.66v-5.36h-1.25c-.15,0-.26-.09-.34-.28s-.12-.49-.12-.92c0-.23,0-.42,.03-.57s.05-.28,.09-.37,.09-.15,.15-.19,.13-.06,.21-.06h1.24v-2.33c0-.08,.02-.15,.06-.21s.12-.12,.23-.16,.27-.07,.46-.09,.43-.03,.71-.03,.53,0,.72,.03,.34,.05,.45,.09,.19,.1,.23,.16,.07,.13,.07,.21v2.33h2.27c.08,0,.15,.02,.21,.06s.11,.1,.15,.19,.07,.21,.09,.37,.03,.35,.03,.57c0,.43-.04,.74-.12,.92s-.19,.28-.34,.28h-2.29v4.91c0,.57,.09,1,.27,1.28s.5,.43,.96,.43c.16,0,.3-.01,.42-.04s.24-.06,.33-.09,.18-.07,.25-.09,.13-.04,.18-.04c.05,0,.09,.01,.13,.04s.08,.08,.1,.16,.04,.19,.06,.33,.03,.32,.03,.54Z"/>
      <path class="cls-1" d="M259.37,68.92c0,.23,0,.42-.03,.59s-.05,.29-.08,.39-.08,.17-.13,.21-.11,.06-.18,.06c-.1,0-.27-.07-.49-.21s-.53-.29-.9-.46-.82-.32-1.34-.46-1.12-.21-1.81-.21c-.73,0-1.4,.13-1.99,.38s-1.1,.61-1.52,1.08-.75,1.02-.97,1.68-.34,1.37-.34,2.16c0,.87,.12,1.63,.35,2.29s.55,1.21,.97,1.66,.91,.78,1.49,1.01,1.22,.34,1.93,.34c.34,0,.68-.04,1.02-.12s.65-.2,.94-.35v-3.52h-2.87c-.14,0-.25-.09-.33-.26s-.12-.47-.12-.9c0-.22,0-.4,.03-.55s.05-.27,.09-.36,.09-.16,.14-.2,.12-.06,.19-.06h5.12c.12,0,.24,.02,.33,.06s.18,.11,.26,.19,.13,.19,.17,.31,.06,.26,.06,.42v6.04c0,.23-.04,.44-.12,.62s-.25,.31-.5,.42-.57,.21-.94,.32-.76,.2-1.17,.28-.81,.14-1.22,.18-.82,.06-1.24,.06c-1.21,0-2.29-.17-3.25-.52s-1.77-.85-2.43-1.51-1.17-1.46-1.52-2.41-.53-2.03-.53-3.23,.19-2.36,.56-3.35,.91-1.83,1.59-2.52,1.52-1.22,2.49-1.59,2.06-.55,3.25-.55c.66,0,1.25,.04,1.79,.13s1.01,.2,1.41,.33,.74,.27,1,.42,.45,.28,.56,.39,.18,.26,.23,.46,.07,.49,.07,.88Z"/>
      <path class="cls-1" d="M274.88,76.08c0,.93-.14,1.76-.41,2.5s-.68,1.36-1.21,1.86-1.19,.89-1.97,1.16-1.68,.4-2.7,.4c-.95,0-1.81-.12-2.57-.36s-1.4-.6-1.92-1.08-.92-1.09-1.2-1.81-.42-1.57-.42-2.54v-9.22c0-.08,.02-.15,.07-.21s.13-.11,.25-.15,.28-.07,.47-.09,.45-.04,.75-.04,.54,.01,.74,.04,.35,.05,.47,.09,.2,.09,.25,.15,.08,.13,.08,.21v8.95c0,.6,.07,1.12,.22,1.56s.36,.81,.64,1.1,.61,.51,1,.65,.82,.22,1.29,.22,.92-.07,1.3-.22,.71-.37,.97-.65,.47-.64,.62-1.05,.22-.89,.22-1.42v-9.13c0-.08,.02-.15,.07-.21s.13-.11,.25-.15,.28-.07,.47-.09,.45-.04,.74-.04,.54,.01,.73,.04,.35,.05,.46,.09,.2,.09,.25,.15,.07,.13,.07,.21v9.09Z"/>
      <path class="cls-1" d="M281.26,81.3c0,.08-.03,.15-.08,.21s-.13,.11-.25,.15-.27,.07-.47,.09-.45,.04-.75,.04-.54-.01-.74-.04-.36-.05-.47-.09-.2-.09-.25-.15-.08-.13-.08-.21v-14.32c0-.08,.03-.15,.08-.21s.14-.11,.26-.15,.28-.07,.47-.09,.44-.04,.74-.04,.55,.01,.75,.04,.35,.05,.47,.09,.2,.09,.25,.15,.08,.13,.08,.21v14.32Z"/>
    </g>
    <g>
      <path class="cls-4" d="M191.72,81.3c0,.08-.02,.15-.06,.21s-.12,.11-.23,.15-.26,.07-.45,.09-.43,.04-.71,.04-.52-.01-.7-.04-.34-.05-.45-.09-.19-.09-.23-.15-.07-.13-.07-.21v-12.34h-.02l-4.39,12.33c-.03,.1-.08,.19-.15,.25s-.17,.12-.29,.16-.28,.06-.46,.08-.41,.02-.68,.02-.49,0-.68-.03-.34-.05-.46-.09-.22-.1-.29-.16-.12-.14-.14-.22l-4.24-12.33h-.02v12.34c0,.08-.02,.15-.06,.21s-.12,.11-.24,.15-.27,.07-.45,.09-.42,.04-.71,.04-.52-.01-.7-.04-.34-.05-.45-.09-.19-.09-.23-.15-.06-.13-.06-.21v-13.51c0-.4,.11-.7,.32-.91s.49-.32,.84-.32h2.02c.36,0,.67,.03,.93,.09s.48,.16,.67,.29,.34,.32,.47,.54,.23,.5,.33,.83l3.28,9.04h.05l3.4-9.01c.1-.33,.21-.61,.33-.83s.26-.41,.42-.55,.35-.24,.57-.3,.47-.09,.76-.09h2.07c.21,0,.39,.03,.54,.08s.28,.13,.38,.24,.17,.23,.22,.39,.08,.33,.08,.52v13.51Z"/>
      <path class="cls-4" d="M205.42,75.99c0,.89-.12,1.7-.35,2.44s-.59,1.37-1.07,1.9-1.07,.94-1.79,1.23-1.56,.43-2.52,.43-1.74-.13-2.43-.39-1.26-.63-1.71-1.12-.79-1.1-1.01-1.82-.33-1.54-.33-2.46,.12-1.71,.36-2.44,.6-1.37,1.07-1.9,1.07-.94,1.79-1.22,1.55-.43,2.51-.43,1.75,.13,2.44,.38,1.26,.63,1.71,1.12,.78,1.1,1,1.82,.33,1.54,.33,2.47Zm-3.04,.12c0-.52-.04-.99-.12-1.42s-.22-.81-.42-1.13-.46-.57-.78-.75-.73-.27-1.22-.27c-.44,0-.82,.08-1.15,.24s-.6,.39-.81,.7-.37,.68-.47,1.11-.16,.93-.16,1.48c0,.52,.04,.99,.13,1.42s.22,.81,.42,1.13,.45,.57,.78,.74,.73,.26,1.22,.26c.45,0,.83-.08,1.16-.24s.6-.39,.81-.7,.37-.67,.47-1.11,.15-.93,.15-1.48Z"/>
      <path class="cls-4" d="M217.67,81.33c0,.08-.02,.15-.06,.21s-.11,.11-.21,.15-.23,.07-.39,.09-.36,.03-.6,.03c-.26,0-.47,0-.63-.03s-.29-.05-.38-.09-.16-.09-.2-.15-.06-.13-.06-.21v-1.21c-.58,.62-1.17,1.09-1.76,1.41s-1.22,.47-1.86,.47c-.72,0-1.32-.12-1.81-.35s-.88-.55-1.18-.96-.52-.88-.64-1.41-.19-1.2-.19-2v-6.4c0-.08,.02-.15,.06-.21s.12-.11,.23-.15,.27-.07,.46-.09,.43-.03,.71-.03,.53,0,.71,.03,.34,.05,.45,.09,.19,.09,.24,.15,.07,.13,.07,.21v5.91c0,.55,.04,.96,.11,1.25s.18,.54,.32,.74,.33,.37,.55,.48,.48,.17,.78,.17c.38,0,.75-.14,1.13-.41s.78-.67,1.21-1.2v-6.95c0-.08,.02-.15,.06-.21s.12-.11,.23-.15,.26-.07,.45-.09,.43-.03,.71-.03,.53,0,.71,.03,.34,.05,.45,.09,.19,.09,.23,.15,.07,.13,.07,.21v10.45Z"/>
      <path class="cls-4" d="M230.61,81.33c0,.08-.02,.15-.07,.21s-.12,.11-.23,.15-.26,.07-.45,.09-.43,.03-.71,.03-.53,0-.72-.03-.34-.05-.45-.09-.19-.09-.23-.15-.07-.13-.07-.21v-5.96c0-.51-.04-.91-.11-1.2s-.18-.54-.32-.74-.32-.37-.54-.48-.48-.17-.78-.17c-.38,0-.75,.14-1.14,.41s-.78,.67-1.2,1.2v6.95c0,.08-.02,.15-.07,.21s-.13,.11-.24,.15-.26,.07-.45,.09-.43,.03-.71,.03-.53,0-.71-.03-.34-.05-.45-.09-.19-.09-.24-.15-.07-.13-.07-.21v-10.45c0-.08,.02-.15,.06-.21s.11-.11,.21-.15,.23-.07,.39-.09,.36-.03,.6-.03,.46,0,.62,.03,.29,.05,.38,.09,.15,.09,.19,.15,.06,.13,.06,.21v1.21c.58-.62,1.17-1.09,1.76-1.41s1.22-.47,1.87-.47c.71,0,1.31,.12,1.8,.35s.88,.55,1.18,.96,.52,.87,.65,1.41,.2,1.19,.2,1.95v6.46Z"/>
      <path class="cls-4" d="M239.47,80.29c0,.34-.02,.61-.06,.79s-.1,.31-.17,.39-.17,.14-.31,.2-.3,.11-.48,.15-.38,.08-.6,.1-.43,.04-.65,.04c-.59,0-1.09-.07-1.52-.22s-.79-.38-1.07-.69-.49-.7-.62-1.17-.2-1.02-.2-1.66v-5.36h-1.25c-.15,0-.26-.09-.34-.28s-.12-.49-.12-.92c0-.23,0-.42,.03-.57s.05-.28,.09-.37,.09-.15,.15-.19,.13-.06,.21-.06h1.24v-2.33c0-.08,.02-.15,.06-.21s.12-.12,.23-.16,.27-.07,.46-.09,.43-.03,.71-.03,.53,0,.72,.03,.34,.05,.45,.09,.19,.1,.23,.16,.07,.13,.07,.21v2.33h2.27c.08,0,.15,.02,.21,.06s.11,.1,.15,.19,.07,.21,.09,.37,.03,.35,.03,.57c0,.43-.04,.74-.12,.92s-.19,.28-.34,.28h-2.29v4.91c0,.57,.09,1,.27,1.28s.5,.43,.96,.43c.16,0,.3-.01,.42-.04s.24-.06,.33-.09,.18-.07,.25-.09,.13-.04,.18-.04c.05,0,.09,.01,.13,.04s.08,.08,.1,.16,.04,.19,.06,.33,.03,.32,.03,.54Z"/>
      <path class="cls-4" d="M259.37,68.92c0,.23,0,.42-.03,.59s-.05,.29-.08,.39-.08,.17-.13,.21-.11,.06-.18,.06c-.1,0-.27-.07-.49-.21s-.53-.29-.9-.46-.82-.32-1.34-.46-1.12-.21-1.81-.21c-.73,0-1.4,.13-1.99,.38s-1.1,.61-1.52,1.08-.75,1.02-.97,1.68-.34,1.37-.34,2.16c0,.87,.12,1.63,.35,2.29s.55,1.21,.97,1.66,.91,.78,1.49,1.01,1.22,.34,1.93,.34c.34,0,.68-.04,1.02-.12s.65-.2,.94-.35v-3.52h-2.87c-.14,0-.25-.09-.33-.26s-.12-.47-.12-.9c0-.22,0-.4,.03-.55s.05-.27,.09-.36,.09-.16,.14-.2,.12-.06,.19-.06h5.12c.12,0,.24,.02,.33,.06s.18,.11,.26,.19,.13,.19,.17,.31,.06,.26,.06,.42v6.04c0,.23-.04,.44-.12,.62s-.25,.31-.5,.42-.57,.21-.94,.32-.76,.2-1.17,.28-.81,.14-1.22,.18-.82,.06-1.24,.06c-1.21,0-2.29-.17-3.25-.52s-1.77-.85-2.43-1.51-1.17-1.46-1.52-2.41-.53-2.03-.53-3.23,.19-2.36,.56-3.35,.91-1.83,1.59-2.52,1.52-1.22,2.49-1.59,2.06-.55,3.25-.55c.66,0,1.25,.04,1.79,.13s1.01,.2,1.41,.33,.74,.27,1,.42,.45,.28,.56,.39,.18,.26,.23,.46,.07,.49,.07,.88Z"/>
      <path class="cls-4" d="M274.88,76.08c0,.93-.14,1.76-.41,2.5s-.68,1.36-1.21,1.86-1.19,.89-1.97,1.16-1.68,.4-2.7,.4c-.95,0-1.81-.12-2.57-.36s-1.4-.6-1.92-1.08-.92-1.09-1.2-1.81-.42-1.57-.42-2.54v-9.22c0-.08,.02-.15,.07-.21s.13-.11,.25-.15,.28-.07,.47-.09,.45-.04,.75-.04,.54,.01,.74,.04,.35,.05,.47,.09,.2,.09,.25,.15,.08,.13,.08,.21v8.95c0,.6,.07,1.12,.22,1.56s.36,.81,.64,1.1,.61,.51,1,.65,.82,.22,1.29,.22,.92-.07,1.3-.22,.71-.37,.97-.65,.47-.64,.62-1.05,.22-.89,.22-1.42v-9.13c0-.08,.02-.15,.07-.21s.13-.11,.25-.15,.28-.07,.47-.09,.45-.04,.74-.04,.54,.01,.73,.04,.35,.05,.46,.09,.2,.09,.25,.15,.07,.13,.07,.21v9.09Z"/>
      <path class="cls-4" d="M281.26,81.3c0,.08-.03,.15-.08,.21s-.13,.11-.25,.15-.27,.07-.47,.09-.45,.04-.75,.04-.54-.01-.74-.04-.36-.05-.47-.09-.2-.09-.25-.15-.08-.13-.08-.21v-14.32c0-.08,.03-.15,.08-.21s.14-.11,.26-.15,.28-.07,.47-.09,.44-.04,.74-.04,.55,.01,.75,.04,.35,.05,.47,.09,.2,.09,.25,.15,.08,.13,.08,.21v14.32Z"/>
    </g>
  </g>
</svg>