<?xml version="1.0" encoding="UTF-8"?>
<svg id="sync" xmlns="http://www.w3.org/2000/svg" viewBox="0 0 40 40">
  <defs>
    <style>
      .cls-1 {
        fill: #f05a28;
      }
    </style>
  </defs>
  <path class="cls-1" d="M19.98,36.46c-9.04,.04-16.49-7.4-16.48-16.47,0-9.04,7.44-16.46,16.52-16.45,9.07,0,16.51,7.44,16.48,16.52-.03,9.02-7.45,16.47-16.52,16.4Zm-.06-10.69h0c.28,0,.56-.01,.84,0,.28,.01,.4-.08,.39-.38-.03-.44,.04-.87,.1-1.31,.13-.95,.57-1.75,1.25-2.42,.85-.82,1.74-1.6,2.57-2.43,1.13-1.14,1.78-2.51,1.68-4.13-.14-2.33-1.41-3.92-3.49-4.86-1.63-.73-3.37-.78-5.09-.43-2.92,.59-4.5,2.71-4.9,5.52-.02,.17-.03,.31,.21,.33,.64,.06,1.28,.13,1.92,.23,.33,.05,.45-.06,.49-.38,.05-.35,.16-.69,.28-1.02,.88-2.59,3.33-3.25,5.31-2.59,2.18,.73,3.98,3.71,1.52,6.14-.71,.7-1.45,1.37-2.19,2.04-1.61,1.44-2.19,3.28-2.11,5.38,0,.22,.09,.31,.31,.31,.3,0,.61,0,.91,0Zm.18,4.95c1,0,1.77-.75,1.78-1.74,0-.99-.77-1.78-1.74-1.78-.96,0-1.79,.8-1.8,1.75,0,.97,.79,1.77,1.76,1.77Z"/>
</svg>