<?xml version="1.0" encoding="UTF-8"?>
<svg id="copy" xmlns="http://www.w3.org/2000/svg" viewBox="0 0 40 40">
  <defs>
    <style>
      .cls-1 {
        fill: #e6e7e8;
      }
    </style>
  </defs>
  <path class="cls-1" d="M39,25.75c-.18,1.01-.42,2.01-.89,2.93-1.58,3.05-4.04,4.85-7.49,5.13-1.45,.12-2.91,.02-4.37,.02-1.1,0-2.2,0-3.3,0-.31,0-.44-.09-.43-.43,.01-2.5,.01-4.99,0-7.49,0-.32,.11-.43,.43-.43,.7,.02,1.41,0,2.11,0,.37,0,.7-.08,.88-.43,.19-.36,.08-.69-.15-1-1.28-1.77-2.56-3.54-3.84-5.31-.4-.55-.79-1.1-1.19-1.65-.44-.6-1.02-.61-1.45,0-1.69,2.33-3.37,4.67-5.06,7-.22,.3-.32,.62-.15,.97,.18,.35,.5,.44,.87,.44,.72,0,1.43,0,2.15,0,.3,0,.42,.09,.42,.4,0,2.51,0,5.02,0,7.52,0,.31-.11,.41-.41,.41-2.85,0-5.71,.06-8.56-.02-2.79-.09-4.85-1.53-6.3-3.85-1.21-1.95-1.56-4.07-.99-6.3,.47-1.84,1.51-3.32,3.08-4.39,.34-.23,.45-.41,.34-.85-.76-3.12,1.26-6.08,4.44-6.52,.71-.1,1.43-.08,2.13,.16,.27,.09,.38,.02,.52-.23,1.78-3.29,4.54-5.21,8.24-5.64,4.12-.48,8.12,1.54,10.27,5.22,.71,1.21,1.15,2.51,1.32,3.9,.03,.26,.16,.36,.39,.41,3.69,.87,6.49,3.99,6.96,7.74,0,.07,.03,.14,.05,.22v2.08Z"/>
</svg>