<?xml version="1.0" encoding="UTF-8"?>
<svg id="mount" xmlns="http://www.w3.org/2000/svg" viewBox="0 0 40 40">
  <defs>
    <style>
      .cls-1 {
        fill: #e6e7e8;
      }
    </style>
  </defs>
  <path class="cls-1" d="M25.48,1c.27,.12,.5,.31,.71,.52,2.23,2.24,4.46,4.48,6.7,6.71,.38,.37,.55,.78,.54,1.32-.02,1.37-.02,8.36,0,9.73,0,.32-.09,.44-.42,.42-.55-.02-1.11-.02-1.67,0-.26,0-.35-.09-.34-.35,0-.94,0-7.5,0-8.44,0-.31-.09-.41-.4-.4-1.39,.01-2.79,0-4.18,0-1.54,0-2.53-.99-2.53-2.52,0-1.4-.01-2.79,0-4.19,0-.33-.11-.42-.43-.41-5.69,0-11.38,0-17.07,0-.98,0-1.42,.45-1.42,1.44,0,10.1,0,20.21,0,30.31,0,1.01,.44,1.44,1.46,1.45,2.51,0,18.11,0,20.62,0,.51,0,.51,0,.51,.51,0,.63-.02,1.26-.02,1.89H5.48c-.29-.1-.59-.18-.87-.32-1.38-.71-2.05-1.85-2.05-3.42,0-10.18,0-20.35,0-30.53,0-.15,0-.3,0-.44,.05-.71,.3-1.34,.73-1.91,.55-.74,1.31-1.14,2.18-1.38H25.48Z"/>
  <g>
    <path class="cls-1" d="M15.8,31.75v2.26h-7.02v-11.68h2.37v9.42h4.66Z"/>
    <path class="cls-1" d="M27.02,28.16c0,1-.13,1.88-.4,2.64-.27,.76-.63,1.39-1.1,1.9-.46,.51-1.02,.9-1.66,1.15s-1.33,.39-2.07,.39-1.4-.13-2.03-.39c-.64-.26-1.19-.64-1.67-1.15-.48-.51-.85-1.15-1.12-1.9-.27-.76-.41-1.64-.41-2.64s.14-1.88,.43-2.64c.28-.76,.66-1.4,1.14-1.91,.48-.52,1.04-.9,1.67-1.16,.63-.26,1.3-.39,1.99-.39s1.39,.13,2.03,.39c.64,.26,1.19,.65,1.67,1.16,.48,.52,.85,1.15,1.12,1.91,.27,.76,.41,1.64,.41,2.64Zm-8.02,0c0,.57,.06,1.09,.19,1.55,.13,.46,.31,.86,.55,1.19s.53,.59,.87,.77c.34,.18,.74,.27,1.18,.27s.83-.09,1.17-.27c.35-.18,.64-.44,.88-.77s.42-.73,.55-1.19c.13-.46,.19-.98,.19-1.55s-.06-1.09-.19-1.56c-.13-.47-.31-.86-.55-1.2s-.53-.59-.88-.77c-.35-.18-.74-.27-1.17-.27s-.84,.09-1.18,.28c-.34,.19-.63,.44-.87,.78s-.42,.73-.55,1.2c-.13,.47-.19,.98-.19,1.54Z"/>
    <path class="cls-1" d="M34.12,24.36c-1.1,0-1.9,.34-2.39,1.02-.49,.68-.73,1.61-.73,2.79,0,.57,.06,1.09,.18,1.56,.12,.47,.3,.87,.55,1.2,.24,.34,.55,.6,.91,.78,.36,.19,.79,.28,1.27,.28,.26,0,.49,0,.67-.02,.19-.01,.35-.03,.49-.07v-4.06h2.37v5.78c-.28,.12-.74,.26-1.36,.4s-1.4,.21-2.32,.21c-.79,0-1.5-.13-2.15-.4-.64-.27-1.19-.66-1.65-1.18-.46-.52-.81-1.15-1.05-1.9-.25-.75-.37-1.61-.37-2.58s.14-1.84,.41-2.59c.27-.75,.65-1.39,1.12-1.91s1.03-.92,1.68-1.19,1.33-.4,2.05-.4c.49,0,.94,.04,1.34,.11s.74,.16,1.03,.25,.53,.19,.71,.29c.19,.1,.32,.18,.4,.24l-.68,2.11c-.32-.19-.7-.36-1.12-.5s-.88-.21-1.37-.21Z"/>
  </g>
</svg>