<?xml version="1.0" encoding="UTF-8"?>
<svg id="mount" xmlns="http://www.w3.org/2000/svg" viewBox="0 0 40 40">
  <defs>
    <style>
      .cls-1 {
        fill: #58595b;
      }
    </style>
  </defs>
  <path class="cls-1" d="M39.2,16.26v1.12c-.05,.14-.1,.28-.14,.42-1.4,4.8-2.8,9.6-4.21,14.39-.56,1.92-2.02,3.02-4.01,3.02-9.18,0-18.37,0-27.55,0-.16,0-.33,.03-.54-.06,2.28-.46,3.09-1.73,3.59-3.51,1.39-4.88,2.83-9.74,4.26-14.61,.5-1.69,1.83-2.67,3.59-2.67,7.47,0,14.95,0,22.42,0,.19,0,.38,0,.56,.03,1.08,.18,1.71,.85,2.04,1.86Z"/>
  <path class="cls-1" d="M.8,7.35c.1-.27,.18-.55,.32-.8,.61-1.13,1.57-1.75,2.85-1.76,3.07-.03,6.15-.02,9.22,0,1.18,0,2.18,.5,2.96,1.4,.52,.6,1.03,1.22,1.52,1.85,.39,.5,.88,.73,1.52,.72,3.92-.01,7.85,0,11.77,0,.88,0,1.68,.21,2.36,.8,.93,.81,1.22,1.85,1.12,3.03-.01,.17-.09,.25-.26,.25-.15,0-.3,0-.45,0-6.44,0-12.87,0-19.31,0-2.72,0-4.59,1.42-5.35,4.02-1.44,4.95-2.9,9.91-4.34,14.86-.19,.65-.51,1.19-1.1,1.54-1.1,.65-2.36,.4-2.82-.84,0-8.36,0-16.72,0-25.08Z"/>
</svg>