<?xml version="1.0" encoding="UTF-8"?>
<svg id="sync" xmlns="http://www.w3.org/2000/svg" viewBox="0 0 40 40">
  <defs>
    <style>
      .cls-1 {
        fill: #58595b;
      }
    </style>
  </defs>
  <path class="cls-1" d="M20.62,34.9c-3,0-6.01,.01-9.01,0-5.24-.02-9.89-4.22-10.53-9.41-.63-5.15,2.33-9.78,6.83-11.53,.26-.1,.39-.26,.49-.52,1.66-4.59,4.9-7.42,9.73-8.18,6.94-1.1,12.89,3.74,13.89,10.01,.12,.76,.4,1.12,1.13,1.41,3.86,1.55,6.22,5.53,5.81,9.65-.42,4.18-3.57,7.62-7.69,8.41-.56,.11-1.11,.16-1.68,.16-2.99,0-5.98,0-8.97,0Zm-.65-17.62c.77-.04,1.5,.13,2.18,.44,1.45,.65,2.43,1.74,2.97,3.23,.12,.33,.05,.48-.32,.44-.2-.02-.39,0-.59,0-.6,.02-1.11,.21-1.37,.81-.25,.59-.07,1.1,.37,1.53,.84,.85,1.68,1.7,2.54,2.53,.62,.6,1.36,.6,1.99,0,.48-.46,.94-.93,1.41-1.4,.44-.44,.9-.86,1.29-1.33,.65-.78,.25-1.87-.74-2.09-.42-.09-.84-.06-1.26-.05-.36,.01-.52-.1-.6-.46-.67-2.76-2.34-4.71-4.99-5.75-2-.78-4.02-.72-6.01,.11-.63,.26-.97,.86-.85,1.44,.17,.85,.98,1.29,1.81,.97,.7-.26,1.42-.47,2.17-.42Zm.1,10.86c-1.13,.02-2.09-.27-2.97-.82-1.09-.69-1.83-1.65-2.26-2.86-.1-.29-.07-.46,.3-.43,.22,.02,.45,.01,.68,0,.59-.03,1.08-.24,1.31-.82,.24-.58,.06-1.08-.36-1.5-.85-.86-1.7-1.72-2.57-2.57-.6-.58-1.35-.58-1.96,0-.38,.36-.74,.73-1.11,1.1-.54,.55-1.12,1.08-1.62,1.67-.65,.76-.23,1.84,.74,2.07,.43,.1,.87,.07,1.31,.05,.35-.01,.49,.11,.57,.45,.65,2.7,2.26,4.63,4.83,5.7,2.04,.85,4.12,.81,6.17-.04,.64-.26,.97-.85,.84-1.44-.18-.87-.96-1.29-1.81-.98-.71,.26-1.42,.47-2.1,.43Z"/>
</svg>