<?xml version="1.0" encoding="UTF-8"?>
<svg id="mount" xmlns="http://www.w3.org/2000/svg" viewBox="0 0 40 40">
  <defs>
    <style>
      .cls-1 {
        fill: #f7941d;
      }
    </style>
  </defs>
  <path class="cls-1" d="M20.02,37.8c-5.2,0-10.4,0-15.6,0-.44,0-.89-.02-1.33-.08-2.44-.29-3.84-2.79-2.67-4.95,1.41-2.6,2.93-5.15,4.4-7.71,4.02-6.97,8.04-13.94,12.07-20.91,1.08-1.87,3.05-2.46,4.79-1.5,.66,.36,1.09,.92,1.46,1.56,3.19,5.53,6.38,11.06,9.57,16.59,2.17,3.75,4.33,7.5,6.5,11.24,.5,.86,.92,1.74,.74,2.78-.33,1.88-1.73,2.96-3.89,2.97-3.28,.01-6.55,0-9.83,0-2.07,0-4.15,0-6.22,0Zm-2.11-18.46c0,1.46,0,2.92,0,4.38,0,.49,.08,.96,.41,1.35,.6,.7,1.64,.94,2.59,.58,.72-.27,1.17-.97,1.17-1.9,0-2.92,0-5.84,0-8.77,0-1.34-.79-2.14-2.08-2.14-1.32,0-2.1,.8-2.1,2.17,0,1.44,0,2.89,0,4.33Zm2.08,9.6c-1.13,0-2.09,.97-2.07,2.08,.02,1.14,.98,2.09,2.1,2.08,1.12-.01,2.07-.97,2.07-2.11,0-1.1-.97-2.06-2.1-2.06Z"/>
</svg>