<?xml version="1.0" encoding="UTF-8"?>
<svg id="logo" xmlns="http://www.w3.org/2000/svg" viewBox="0 0 263.65 91">
  <defs>
    <style>
      .cls-1 {
        fill: #b5e3f9;
      }

      .cls-1, .cls-2, .cls-3, .cls-4 {
        stroke: #231f20;
      }

      .cls-2 {
        fill: #407aae;
      }

      .cls-3 {
        fill: #71c9f2;
      }

      .cls-4 {
        fill: #fff;
      }
    </style>
  </defs>
  <path class="cls-2" d="M35.21,48.5h-13.35s-6.68,11.56-6.68,11.56l6.68,11.56h13.35s7.34,12.72,7.34,12.72H14.52S.5,60.06,.5,60.06l14.02-24.28h21.39s2.95,6.74,2.95,6.74l-3.65,5.98Z"/>
  <path class="cls-3" d="M49.11,60.06l6.68,11.56h13.35s6.68-11.56,6.68-11.56l-6.68-11.56,7.34-12.72,14.02,24.28-14.02,24.28h-28.04s-10.7-18.53-10.7-18.53l4.37-5.92,7,.17Z"/>
  <path class="cls-1" d="M51.5,42.5l6.68-11.56-6.68-11.56h-13.35s-6.68,11.56-6.68,11.56h-14.69S30.8,6.66,30.8,6.66h28.04s14.02,24.28,14.02,24.28l-10.7,18.53-7.31-.82-3.35-6.15Z"/>
  <g>
    <path class="cls-4" d="M133.2,77.35c-2.45,1.19-5.66,1.78-9.61,1.78-5.16,0-9.21-1.52-12.16-4.55s-4.43-7.07-4.43-12.12c0-5.38,1.66-9.73,4.98-13.08s7.63-5.02,12.93-5.02c3.28,0,6.05,.41,8.3,1.24v7.29c-2.25-1.34-4.81-2.02-7.69-2.02-3.16,0-5.7,.99-7.64,2.98s-2.91,4.67-2.91,8.06,.91,5.84,2.74,7.77,4.29,2.89,7.38,2.89,5.66-.72,8.11-2.16v6.91Z"/>
    <path class="cls-4" d="M159.07,78.54h-20.02V44.93h7.57v27.47h12.45v6.14Z"/>
    <path class="cls-4" d="M176.61,79.13c-4.81,0-8.73-1.57-11.77-4.7s-4.55-7.21-4.55-12.25c0-5.31,1.54-9.61,4.62-12.89s7.16-4.92,12.23-4.92c4.8,0,8.68,1.57,11.64,4.71,2.96,3.14,4.44,7.28,4.44,12.42s-1.54,9.54-4.61,12.77-7.07,4.85-12.01,4.85Zm.33-28.24c-2.66,0-4.77,1-6.33,2.99s-2.34,4.63-2.34,7.91,.78,5.96,2.34,7.9,3.61,2.91,6.14,2.91,4.68-.94,6.21-2.82,2.3-4.5,2.3-7.84-.74-6.2-2.23-8.13-3.52-2.91-6.09-2.91Z"/>
    <path class="cls-4" d="M229.04,78.54h-7.64l-13.85-21.12c-.81-1.23-1.38-2.16-1.69-2.79h-.09c.12,1.19,.19,3,.19,5.44v18.47h-7.15V44.93h8.16l13.34,20.46c.61,.92,1.17,1.84,1.69,2.74h.09c-.12-.78-.19-2.32-.19-4.62v-18.59h7.15v33.61Z"/>
    <path class="cls-4" d="M256.88,78.54h-20.16V44.93h19.38v6.16h-11.81v7.48h10.99v6.14h-10.99v7.69h12.59v6.14Z"/>
  </g>
  <g>
    <path class="cls-4" d="M104.96,42.01c-3.61,0-6.55-1.17-8.82-3.52s-3.41-5.41-3.41-9.18c0-3.98,1.15-7.21,3.46-9.67s5.37-3.69,9.18-3.69c3.6,0,6.51,1.18,8.73,3.53s3.33,5.46,3.33,9.32-1.15,7.15-3.45,9.58-5.31,3.64-9.01,3.64Zm.25-21.18c-1.99,0-3.57,.75-4.75,2.24s-1.76,3.47-1.76,5.93,.59,4.47,1.76,5.92,2.71,2.18,4.61,2.18,3.51-.71,4.66-2.12,1.72-3.37,1.72-5.88-.56-4.65-1.67-6.1-2.64-2.18-4.57-2.18Z"/>
    <path class="cls-4" d="M144.29,41.57h-5.73l-10.39-15.84c-.61-.93-1.03-1.62-1.27-2.09h-.07c.09,.89,.14,2.25,.14,4.08v13.85h-5.36V16.36h6.12l10,15.35c.46,.69,.88,1.38,1.27,2.06h.07c-.09-.59-.14-1.74-.14-3.46v-13.94h5.36v25.21Z"/>
    <path class="cls-4" d="M165.17,41.57h-15.12V16.36h14.54v4.62h-8.86v5.61h8.24v4.61h-8.24v5.77h9.44v4.61Z"/>
  </g>
</svg>